<svg width="204" height="33" viewBox="0 0 204 33" fill="none" xmlns="http://www.w3.org/2000/svg">
<path d="M16.5749 32C13.8124 32 11.3029 31.6255 9.04618 30.8765C6.7895 30.1274 4.88299 29.1287 3.32666 27.8804C1.77033 26.6042 0.661441 25.2033 0 23.6775L4.2021 22.554C5.21371 24.6623 6.7895 26.2713 8.92945 27.381C11.0694 28.4629 13.6179 29.0039 16.5749 29.0039C18.4425 29.0039 20.0767 28.7958 21.4774 28.3797C22.917 27.9358 24.0259 27.3255 24.804 26.5488C25.5822 25.772 25.9713 24.8704 25.9713 23.844C25.9713 22.3182 25.3877 21.1391 24.2204 20.3069C23.0532 19.4746 21.3801 18.8366 19.2012 18.3927L11.3807 16.7282C8.30692 16.0902 5.93352 15.0221 4.26046 13.5241C2.62631 12.026 1.80924 10.3199 1.80924 8.40572C1.80924 6.76896 2.37341 5.3264 3.50175 4.07802C4.63009 2.80191 6.16697 1.80321 8.11238 1.08193C10.0967 0.360642 12.3339 0 14.8241 0C17.4309 0 19.7654 0.34677 21.8276 1.04031C23.9286 1.70611 25.6989 2.59385 27.1385 3.70351C28.5781 4.81318 29.6092 6.04768 30.2317 7.40702L26.1464 8.57217C25.2126 6.74122 23.7535 5.35414 21.7692 4.41092C19.8238 3.46771 17.5282 2.9961 14.8824 2.9961C13.2094 2.9961 11.7309 3.20416 10.4469 3.62029C9.20181 4.03641 8.2291 4.63286 7.52876 5.40962C6.82841 6.18639 6.47823 7.10186 6.47823 8.15605C6.47823 9.43216 7.0424 10.5834 8.17074 11.6099C9.29908 12.6086 11.0305 13.3576 13.365 13.857L20.2518 15.3134C23.6757 16.0347 26.2631 17.075 28.014 18.4343C29.7648 19.7937 30.6403 21.4998 30.6403 23.5527C30.6403 25.2172 30.0372 26.6875 28.831 27.9636C27.6638 29.212 26.0102 30.1968 23.8702 30.9181C21.7692 31.6394 19.3374 32 16.5749 32Z" fill="white"/>
<path d="M58.3907 32C55.3559 32 52.5156 31.6116 49.8698 30.8349C47.2629 30.0303 44.9674 28.9207 42.983 27.5059C40.9987 26.0633 39.4424 24.371 38.314 22.4291C37.1857 20.4595 36.6215 18.3095 36.6215 15.9792C36.6215 13.6489 37.1857 11.5128 38.314 9.57087C39.4424 7.60121 40.9987 5.90897 42.983 4.49415C44.9674 3.05158 47.2629 1.94192 49.8698 1.16515C52.5156 0.388383 55.3559 0 58.3907 0C61.4256 0 64.2464 0.402254 66.8533 1.20676C69.499 1.98353 71.8141 3.09319 73.7984 4.53576C75.7827 5.95059 77.3391 7.62896 78.4674 9.57087C79.5957 11.5128 80.1599 13.6489 80.1599 15.9792C80.1599 18.3095 79.5957 20.4595 78.4674 22.4291C77.3391 24.371 75.7827 26.0633 73.7984 27.5059C71.8141 28.9207 69.499 30.0303 66.8533 30.8349C64.2464 31.6116 61.4256 32 58.3907 32ZM58.3907 28.8791C60.9198 28.8791 63.2153 28.5462 65.2775 27.8804C67.3785 27.2146 69.1878 26.2852 70.7052 25.0923C72.2226 23.8994 73.3899 22.5262 74.2069 20.9727C75.0629 19.4192 75.4909 17.7547 75.4909 15.9792C75.4909 14.2315 75.0629 12.5808 74.2069 11.0273C73.3899 9.47377 72.2226 8.10056 70.7052 6.90767C69.1878 5.71478 67.3785 4.78544 65.2775 4.11963C63.2153 3.45384 60.9198 3.12094 58.3907 3.12094C55.8617 3.12094 53.5466 3.45384 51.4456 4.11963C49.3834 4.78544 47.5937 5.71478 46.0762 6.90767C44.5588 8.10056 43.3721 9.47377 42.5161 11.0273C41.6991 12.5808 41.2905 14.2315 41.2905 15.9792C41.2905 17.7547 41.6991 19.4192 42.5161 20.9727C43.3721 22.5262 44.5588 23.8994 46.0762 25.0923C47.5937 26.2852 49.4029 27.2146 51.5039 27.8804C53.605 28.5462 55.9006 28.8791 58.3907 28.8791Z" fill="white"/>
<path d="M87.3927 31.5006V0.499348H105.66C108.111 0.499348 110.232 0.832249 112.022 1.49805C113.85 2.13611 115.251 3.03771 116.224 4.20286C117.235 5.36801 117.741 6.72735 117.741 8.28088C117.741 9.8899 117.177 11.3186 116.049 12.567C114.959 13.7876 113.383 14.7169 111.321 15.355L111.263 14.3563C112.975 14.8002 114.434 15.4244 115.64 16.2289C116.885 17.0334 117.838 17.9766 118.5 19.0585C119.161 20.1127 119.492 21.2501 119.492 22.4707C119.492 25.2449 118.247 27.4504 115.757 29.0871C113.306 30.6961 109.96 31.5006 105.719 31.5006H87.3927ZM92.0617 28.3797H105.719C108.481 28.3797 110.679 27.8665 112.314 26.8401C113.987 25.7859 114.823 24.3433 114.823 22.5124C114.823 20.7091 113.987 19.2805 112.314 18.2263C110.679 17.1443 108.481 16.6034 105.719 16.6034H92.0617V28.3797ZM92.0617 13.6073H105.31C107.645 13.6073 109.512 13.1218 110.913 12.1508C112.352 11.1799 113.072 9.93151 113.072 8.40572C113.072 6.85219 112.352 5.67317 110.913 4.86866C109.512 4.03641 107.645 3.62029 105.31 3.62029H92.0617V13.6073Z" fill="white"/>
<path d="M126.108 31.5006V0.499348H141.049C143.889 0.499348 146.379 0.901603 148.519 1.70611C150.659 2.48288 152.313 3.59254 153.48 5.03511C154.686 6.44993 155.289 8.10056 155.289 9.987C155.289 12.1786 154.472 14.0511 152.838 15.6047C151.243 17.1582 149.064 18.254 146.301 18.8921L156.456 31.5006H150.97L140.348 18.143L143.5 19.433H130.777V31.5006H126.108ZM130.777 16.3121H141.282C143.15 16.3121 144.784 16.0624 146.185 15.5631C147.585 15.036 148.675 14.3008 149.453 13.3576C150.231 12.3866 150.62 11.2492 150.62 9.94538C150.62 8.64153 150.231 7.51799 149.453 6.57477C148.675 5.63156 147.585 4.91027 146.185 4.41092C144.784 3.88383 143.15 3.62029 141.282 3.62029H130.777V16.3121Z" fill="white"/>
<path d="M182.231 32C179.196 32 176.356 31.6116 173.71 30.8349C171.103 30.0303 168.807 28.9207 166.823 27.5059C164.839 26.0633 163.282 24.371 162.154 22.4291C161.026 20.4595 160.462 18.3095 160.462 15.9792C160.462 13.6489 161.026 11.5128 162.154 9.57087C163.282 7.60121 164.839 5.90897 166.823 4.49415C168.807 3.05158 171.103 1.94192 173.71 1.16515C176.356 0.388383 179.196 0 182.231 0C185.266 0 188.086 0.402254 190.693 1.20676C193.339 1.98353 195.654 3.09319 197.638 4.53576C199.623 5.95059 201.179 7.62896 202.307 9.57087C203.436 11.5128 204 13.6489 204 15.9792C204 18.3095 203.436 20.4595 202.307 22.4291C201.179 24.371 199.623 26.0633 197.638 27.5059C195.654 28.9207 193.339 30.0303 190.693 30.8349C188.086 31.6116 185.266 32 182.231 32ZM182.231 28.8791C184.76 28.8791 187.055 28.5462 189.118 27.8804C191.219 27.2146 193.028 26.2852 194.545 25.0923C196.063 23.8994 197.23 22.5262 198.047 20.9727C198.903 19.4192 199.331 17.7547 199.331 15.9792C199.331 14.2315 198.903 12.5808 198.047 11.0273C197.23 9.47377 196.063 8.10056 194.545 6.90767C193.028 5.71478 191.219 4.78544 189.118 4.11963C187.055 3.45384 184.76 3.12094 182.231 3.12094C179.702 3.12094 177.387 3.45384 175.286 4.11963C173.224 4.78544 171.434 5.71478 169.916 6.90767C168.399 8.10056 167.212 9.47377 166.356 11.0273C165.539 12.5808 165.131 14.2315 165.131 15.9792C165.131 17.7547 165.539 19.4192 166.356 20.9727C167.212 22.5262 168.399 23.8994 169.916 25.0923C171.434 26.2852 173.243 27.2146 175.344 27.8804C177.445 28.5462 179.741 28.8791 182.231 28.8791Z" fill="white"/>
</svg>
